<?xml version="1.0" encoding="utf-8"?>
<!-- Generator: Adobe Illustrator 15.0.0, SVG Export Plug-In . SVG Version: 6.00 Build 0)  -->
<!DOCTYPE svg PUBLIC "-//W3C//DTD SVG 1.1//EN" "http://www.w3.org/Graphics/SVG/1.1/DTD/svg11.dtd">
<svg version="1.1" id="Warstwa_1" xmlns="http://www.w3.org/2000/svg" xmlns:xlink="http://www.w3.org/1999/xlink" x="0px" y="0px"
	 width="140px" height="100px" viewBox="0 0 140 100" enable-background="new 0 0 140 100" xml:space="preserve">
<g id="XMLID_1_">
	<path fill="#0147FA" d="M122,15.18c2.3,2.57,4.76,22.44,4.76,34.82S124.3,82.25,122,84.82c-2.29,2.55-33.4,3.17-52,3.17
		c-18.6,0-49.71-0.62-52-3.17c-2.3-2.57-4.76-22.44-4.76-34.82c0-6.19,0.62-14.25,1.52-21.09c0.9-6.83,2.09-12.45,3.24-13.73
		c2.29-2.55,33.4-3.17,52-3.17C88.6,12.01,119.71,12.63,122,15.18z M102.77,53.89c3.7-2.14,3.7-5.64,0-7.78L82.15,34.21
		c-3.7-2.14-6.73-0.39-6.73,3.89v23.8c0,4.279,3.03,6.029,6.73,3.89L102.77,53.89z M67.81,53.89c3.7-2.14,3.7-5.64,0-7.78
		l-20.62-11.9c-3.7-2.14-6.74-0.39-6.74,3.89v23.8c0,4.279,3.04,6.029,6.74,3.89L67.81,53.89z"/>
</g>
</svg>
